<svg width="23" height="24" viewBox="0 0 23 24" fill="none" xmlns="http://www.w3.org/2000/svg">
<g id="bell 1" clip-path="url(#clip0_4643_405)">
<path id="Vector" d="M22.4164 16.0317L20.1039 7.03296C19.0363 3.18621 15.4982 0.5 11.5 0.5C7.28141 0.5 3.69437 3.37692 2.78204 7.48625L0.663162 16.1774C0.474371 17.0274 0.681371 17.9072 1.22858 18.5905C1.77675 19.2747 2.5942 19.6667 3.47108 19.6667H6.80512C7.25075 21.8507 9.18562 23.5 11.5 23.5C13.8144 23.5 15.7492 21.8507 16.1949 19.6667H19.6439C20.5505 19.6667 21.3852 19.2527 21.9334 18.531C22.4825 17.8094 22.6569 16.8952 22.4164 16.0317ZM11.5 22.5417C9.71941 22.5417 8.23112 21.316 7.80275 19.6667H15.1972C14.7689 21.316 13.2806 22.5417 11.5 22.5417ZM21.1705 17.9512C20.8054 18.4323 20.2486 18.7083 19.6439 18.7083H3.47204C2.88745 18.7083 2.34216 18.4477 1.97704 17.9915C1.61191 17.5353 1.47391 16.9498 1.59754 16.3949L3.71545 7.70379C4.53195 4.02667 7.73375 1.45833 11.5 1.45833C15.0688 1.45833 18.2275 3.85608 19.1782 7.28021L21.4906 16.279C21.6526 16.8607 21.5357 17.4702 21.1705 17.9512Z" fill="black"/>
</g>
<defs>
<clipPath id="clip0_4643_405">
<rect width="23" height="23" fill="white" transform="translate(0 0.5)"/>
</clipPath>
</defs>
</svg>
