<svg width="23" height="24" viewBox="0 0 23 24" fill="none" xmlns="http://www.w3.org/2000/svg">
<g id="heart-rate 1" clip-path="url(#clip0_4643_381)">
<path id="Vector" d="M15.8614 20.625H15.8508C15.4685 20.6211 15.1407 20.3701 15.0362 20.0021L11.4684 4.65626L7.93404 18.0902C7.81521 18.4601 7.5095 18.693 7.14629 18.7073C6.77733 18.7131 6.45821 18.5128 6.32117 18.1774L4.78592 12.9267C4.59042 12.3833 4.04704 12 3.44138 12H0.479167C0.214667 12 0 11.7853 0 11.5208C0 11.2563 0.214667 11.0416 0.479167 11.0416H3.44138C4.4505 11.0416 5.35708 11.6808 5.69729 12.6306L7.10796 17.4663L10.6538 3.99309C10.7784 3.60593 11.109 3.36251 11.4914 3.37497C11.8709 3.38168 12.1948 3.6318 12.2992 3.99693L15.8604 19.3149L17.3602 12.8318C17.6448 11.7709 18.5965 11.0407 19.6784 11.0407H22.5208C22.7853 11.0407 23 11.2553 23 11.5198C23 11.7843 22.7853 11.999 22.5208 11.999H19.6784C19.0287 11.999 18.4585 12.437 18.2908 13.0637L16.6875 19.9877C16.5667 20.3825 16.239 20.625 15.8614 20.625Z" fill="black"/>
</g>
<defs>
<clipPath id="clip0_4643_381">
<rect width="23" height="23" fill="white" transform="translate(0 0.5)"/>
</clipPath>
</defs>
</svg>
