<svg width="23" height="24" viewBox="0 0 23 24" fill="none" xmlns="http://www.w3.org/2000/svg">
<g id="land-layer-location 1" clip-path="url(#clip0_4643_410)">
<path id="Vector" d="M9.81238 14.6661C10.2791 15.1232 10.8934 15.3503 11.5057 15.3503C12.1114 15.3503 12.7152 15.127 13.1694 14.6824L16.2428 11.9521C17.5097 10.6852 18.2083 9.00042 18.2083 7.20833C18.2083 5.41625 17.5097 3.73246 16.2428 2.46458C14.9768 1.19767 13.2921 0.5 11.5 0.5C9.70792 0.5 8.02317 1.19767 6.75625 2.46458C4.14096 5.07987 4.14096 9.33583 6.77637 11.9712L9.81238 14.6661ZM7.43379 3.14212C8.52054 2.05633 9.96475 1.45833 11.5 1.45833C13.0352 1.45833 14.4795 2.05633 15.5653 3.14212C16.652 4.22792 17.25 5.67212 17.25 7.20833C17.25 8.74454 16.652 10.1878 15.5863 11.2544L12.5168 13.9809C11.9571 14.53 11.0448 14.5271 10.466 13.9646L7.43379 11.2736C5.19225 9.03204 5.19225 5.38367 7.43379 3.14212ZM11.5 10.0642C13.0793 10.0642 14.3654 8.77904 14.3654 7.19875C14.3654 5.61846 13.0793 4.33333 11.5 4.33333C9.92067 4.33333 8.63458 5.61846 8.63458 7.19875C8.63458 8.77904 9.92067 10.0642 11.5 10.0642ZM11.5 5.29167C12.5522 5.29167 13.4071 6.14746 13.4071 7.19875C13.4071 8.25004 12.5513 9.10583 11.5 9.10583C10.4487 9.10583 9.59292 8.25004 9.59292 7.19875C9.59292 6.14746 10.4487 5.29167 11.5 5.29167ZM23 16.807C23 16.9757 22.9118 17.1319 22.7671 17.2181L12.8867 23.1464C12.4593 23.4032 11.9801 23.5316 11.5 23.5316C11.0199 23.5316 10.5407 23.4023 10.1133 23.1464L0.232875 17.2172C0.0881667 17.1309 0 16.9747 0 16.806C0 16.6374 0.0881667 16.4812 0.232875 16.3949L5.02454 13.5199C5.24879 13.3829 5.54587 13.4576 5.68196 13.6848C5.819 13.9109 5.74425 14.2061 5.51712 14.3422L1.41067 16.806L10.6059 22.3232C11.1579 22.6547 11.8431 22.6547 12.3951 22.3232L21.5903 16.806L17.4589 14.3268C17.2318 14.1908 17.158 13.8965 17.2941 13.6694C17.4311 13.4423 17.7272 13.3685 17.9515 13.5046L22.7671 16.3949C22.9118 16.4821 23 16.6374 23 16.806V16.807Z" fill="black"/>
</g>
<defs>
<clipPath id="clip0_4643_410">
<rect width="23" height="23" fill="white" transform="translate(0 0.5)"/>
</clipPath>
</defs>
</svg>
