<svg width="23" height="24" viewBox="0 0 23 24" fill="none" xmlns="http://www.w3.org/2000/svg">
<g id="assessment 1" clip-path="url(#clip0_4643_390)">
<path id="Vector" d="M10.5417 23.0208C10.5417 23.2853 10.327 23.5 10.0625 23.5H4.3125C1.93488 23.5 0 21.5651 0 19.1875V4.81346C0 2.43583 1.93392 0.5 4.3125 0.5H14.8542C17.2318 0.5 19.1667 2.43392 19.1667 4.81154V7.68654C19.1667 7.95104 18.953 8.16571 18.6875 8.16571C18.422 8.16571 18.2083 7.95104 18.2083 7.68654V4.81154C18.2083 2.96196 16.7028 1.45737 14.8542 1.45737H4.3125C2.46292 1.45737 0.958333 2.96292 0.958333 4.8125V19.1865C0.958333 21.0361 2.46387 22.5407 4.3125 22.5407H10.0625C10.327 22.5407 10.5417 22.7563 10.5417 23.0208ZM22.8601 23.3601C22.7662 23.454 22.6435 23.5 22.5208 23.5C22.3982 23.5 22.2755 23.453 22.1816 23.3601L18.9012 20.0797C17.8116 21.015 16.399 21.5833 14.8532 21.5833C11.4185 21.5833 8.62404 18.7888 8.62404 15.3542C8.62404 11.9195 11.4185 9.125 14.8532 9.125C18.2879 9.125 21.0824 11.9195 21.0824 15.3542C21.0824 16.899 20.5131 18.3116 19.5788 19.4022L22.8591 22.6825C23.046 22.8694 23.047 23.1732 22.8601 23.3601ZM20.125 15.3542C20.125 12.4485 17.7608 10.0833 14.8542 10.0833C11.9475 10.0833 9.58333 12.4485 9.58333 15.3542C9.58333 18.2598 11.9475 20.625 14.8542 20.625C17.7608 20.625 20.125 18.2598 20.125 15.3542ZM6.22917 5.29167H4.3125C4.048 5.29167 3.83333 5.50633 3.83333 5.77083C3.83333 6.03533 4.048 6.25 4.3125 6.25H6.22917C6.49367 6.25 6.70833 6.03533 6.70833 5.77083C6.70833 5.50633 6.49367 5.29167 6.22917 5.29167ZM6.22917 14.875H4.3125C4.048 14.875 3.83333 15.0897 3.83333 15.3542C3.83333 15.6187 4.048 15.8333 4.3125 15.8333H6.22917C6.49367 15.8333 6.70833 15.6187 6.70833 15.3542C6.70833 15.0897 6.49367 14.875 6.22917 14.875ZM9.10417 5.29167C8.83967 5.29167 8.625 5.50633 8.625 5.77083C8.625 6.03533 8.83967 6.25 9.10417 6.25H14.8542C15.1187 6.25 15.3333 6.03533 15.3333 5.77083C15.3333 5.50633 15.1187 5.29167 14.8542 5.29167H9.10417ZM6.22917 10.0833H4.3125C4.048 10.0833 3.83333 10.298 3.83333 10.5625C3.83333 10.827 4.048 11.0417 4.3125 11.0417H6.22917C6.49367 11.0417 6.70833 10.827 6.70833 10.5625C6.70833 10.298 6.49367 10.0833 6.22917 10.0833ZM17.387 14.0422L14.7938 16.5511C14.4708 16.8674 13.9447 16.8712 13.6217 16.555L12.3155 15.266C12.1277 15.0801 11.8239 15.082 11.638 15.2698C11.4521 15.4586 11.454 15.7624 11.6428 15.9474L12.95 17.2382C13.2969 17.5775 13.7521 17.7471 14.2073 17.7471C14.6625 17.7471 15.1187 17.5765 15.4637 17.2363L18.054 14.7312C18.2438 14.5472 18.2495 14.2435 18.0655 14.0537C17.8825 13.864 17.5777 13.8601 17.387 14.0422Z" fill="black"/>
</g>
<defs>
<clipPath id="clip0_4643_390">
<rect width="23" height="23" fill="white" transform="translate(0 0.5)"/>
</clipPath>
</defs>
</svg>
