<svg width="30" height="30" viewBox="0 0 30 30" fill="none" xmlns="http://www.w3.org/2000/svg">
    <path
            id="Vector"
            d="M15.9734 15.0003L29.8281 1.02364C30.092 0.757403 30.047 0.363678 29.7276 0.143692C29.4111 -0.0762943 28.9386 -0.0400466 28.6716 0.227437L15 14.0191L1.32987 0.228687C1.06289 -0.0400466 0.590418 -0.0750444 0.273938 0.144942C-0.0455417 0.364928 -0.0905387 0.758653 0.173444 1.02489L14.0266 15.0003L0.171945 28.9769C-0.0920385 29.2431 -0.0470415 29.6368 0.272438 29.8568C0.590418 30.0756 1.06289 30.0406 1.32837 29.7731L15 15.9814L28.6701 29.7718C28.9356 30.0393 29.4096 30.0743 29.7261 29.8556C30.0455 29.6356 30.0905 29.2419 29.8266 28.9756L15.9734 15.0003Z"
            fill="#A47076"
            stroke="#A47076"
            stroke-width="2" />
</svg>
