<svg width="40" height="40" viewBox="0 0 40 40" fill="none" xmlns="http://www.w3.org/2000/svg">
<g id="process 1" clip-path="url(#clip0_4120_3006)">
<path id="Vector" d="M20 16.6667C18.1617 16.6667 16.6667 18.1617 16.6667 20C16.6667 21.8383 18.1617 23.3333 20 23.3333C21.8383 23.3333 23.3333 21.8383 23.3333 20C23.3333 18.1617 21.8383 16.6667 20 16.6667ZM20 21.6667C19.0817 21.6667 18.3333 20.9183 18.3333 20C18.3333 19.0817 19.0817 18.3333 20 18.3333C20.9183 18.3333 21.6667 19.0817 21.6667 20C21.6667 20.9183 20.9183 21.6667 20 21.6667ZM30.3333 16.0133C30.505 15.3667 30.4117 14.6933 30.075 14.1183C29.7383 13.5417 29.1983 13.13 28.5517 12.96C27.9083 12.79 27.235 12.8833 26.6567 13.2183L25.5867 13.8417C24.6917 13.0283 23.6433 12.4233 22.4983 12.0633V10.8333C22.4983 9.455 21.3767 8.33333 19.9983 8.33333C18.62 8.33333 17.4983 9.455 17.4983 10.8333V12.0633C16.3533 12.4233 15.305 13.03 14.41 13.8433L13.3417 13.22C12.765 12.8833 12.0917 12.7917 11.445 12.9617C10.8 13.1317 10.2583 13.5433 9.92166 14.1183C9.58499 14.695 9.49332 15.3683 9.66166 16.0133C9.82999 16.6583 10.2433 17.2017 10.82 17.5383L11.8967 18.1667C11.74 18.8083 11.6633 19.4133 11.6633 20.0017C11.6633 20.59 11.74 21.1933 11.8967 21.835L10.82 22.4633C10.2433 22.8 9.83166 23.3417 9.66166 23.9883C9.49166 24.635 9.58499 25.3083 9.92166 25.8833C10.2583 26.46 10.7983 26.8717 11.445 27.0417C12.0917 27.21 12.765 27.12 13.34 26.7817L14.4083 26.1583C15.3033 26.9733 16.3533 27.5783 17.4967 27.9383V29.1683C17.4967 30.5467 18.6183 31.6683 19.9967 31.6683C21.375 31.6683 22.4967 30.5467 22.4967 29.1683V27.9383C23.6417 27.5783 24.69 26.9733 25.585 26.1583L26.6533 26.7817C27.2333 27.1183 27.9067 27.21 28.55 27.0417C29.1967 26.8717 29.7367 26.46 30.0733 25.8833C30.41 25.3067 30.5033 24.6333 30.3317 23.9883C30.1617 23.3417 29.7517 22.8017 29.175 22.465L28.0983 21.8367C28.255 21.1967 28.3317 20.5917 28.3317 20.0033C28.3317 19.415 28.255 18.81 28.0983 18.1683L29.175 17.5417C29.7533 17.205 30.1633 16.6633 30.3317 16.0167L30.3333 16.0133ZM28.7217 15.59C28.665 15.805 28.5283 15.985 28.3367 16.0967L26.705 17.0483C26.37 17.245 26.2133 17.6467 26.33 18.0183C26.56 18.75 26.6667 19.38 26.6667 19.9983C26.6667 20.6167 26.56 21.2467 26.33 21.9767C26.2133 22.3483 26.3667 22.75 26.705 22.9467L28.3367 23.9C28.5283 24.0117 28.665 24.1917 28.7217 24.4067C28.7783 24.6217 28.7483 24.8467 28.635 25.0383C28.5233 25.23 28.3417 25.3683 28.1267 25.4233C27.915 25.4817 27.69 25.4517 27.495 25.3367L25.875 24.3917C25.545 24.1967 25.1133 24.2567 24.8483 24.5417C23.9317 25.5183 22.7667 26.19 21.48 26.4833C21.1 26.57 20.8317 26.9067 20.8317 27.295V29.1617C20.8317 29.6217 20.4583 29.995 19.9983 29.995C19.5383 29.995 19.165 29.6217 19.165 29.1617V27.295C19.165 26.9067 18.8967 26.5683 18.5167 26.4833C17.2283 26.19 16.0633 25.5183 15.1483 24.5417C14.9867 24.3683 14.765 24.2783 14.54 24.2783C14.3967 24.2783 14.2517 24.315 14.12 24.3917L12.5017 25.3367C12.3117 25.4483 12.085 25.48 11.87 25.4233C11.655 25.3667 11.475 25.23 11.3617 25.0367C11.25 24.845 11.2183 24.62 11.275 24.4067C11.3317 24.1917 11.4683 24.01 11.66 23.8983L13.2917 22.945C13.6283 22.7483 13.7833 22.3467 13.6667 21.975C13.4367 21.2433 13.33 20.6133 13.33 19.995C13.33 19.3767 13.4367 18.7483 13.6667 18.015C13.7833 17.6433 13.6283 17.2417 13.2917 17.0467L11.66 16.095C11.4683 15.9833 11.33 15.8017 11.275 15.5867C11.2183 15.3717 11.2483 15.1483 11.3617 14.955C11.4733 14.7633 11.655 14.625 11.87 14.57C12.0833 14.5117 12.31 14.5433 12.5017 14.655L14.12 15.6C14.455 15.795 14.8817 15.735 15.1483 15.4517C16.0633 14.475 17.23 13.8033 18.5167 13.51C18.8967 13.4233 19.165 13.0867 19.165 12.6983V10.8317C19.165 10.3717 19.5383 9.99833 19.9983 9.99833C20.4583 9.99833 20.8317 10.3717 20.8317 10.8317V12.6983C20.8317 13.0867 21.1 13.425 21.48 13.51C22.7667 13.8033 23.9333 14.475 24.8483 15.4517C25.1133 15.735 25.545 15.7967 25.875 15.6L27.495 14.655C27.685 14.545 27.905 14.5117 28.1267 14.57C28.3417 14.6267 28.5217 14.7633 28.635 14.955C28.7467 15.1483 28.7783 15.3717 28.7217 15.5867V15.59ZM40 20.8683C39.5417 31.5967 30.755 40 20 40C14.1967 40 8.82499 37.5267 5.02499 33.21C5.02166 33.2533 4.99999 33.29 4.99999 33.3333V39.1667C4.99999 39.6267 4.62666 40 4.16666 40C3.70666 40 3.33332 39.6267 3.33332 39.1667V33.3333C3.33332 32.5567 3.60999 31.8517 4.05666 31.285C4.11166 31.18 4.18332 31.0833 4.28332 31.0067C4.28332 31.0067 4.28666 31.0067 4.28832 31.0033C4.89332 30.385 5.73499 30 6.66666 30H12.5C12.96 30 13.3333 30.3733 13.3333 30.8333C13.3333 31.2933 12.96 31.6667 12.5 31.6667H6.66666C6.43332 31.6667 6.21166 31.7167 6.00999 31.805C9.50666 35.9517 14.545 38.3333 20 38.3333C29.86 38.3333 37.9133 30.63 38.3333 20.7983C38.3533 20.34 38.68 19.9683 39.2017 20.0017C39.66 20.0217 40.0183 20.41 40 20.87V20.8683ZM1.66666 19.2017C1.64832 19.65 1.27832 20 0.834989 20C0.823323 20 0.809989 20 0.798323 20C0.338323 19.98 -0.0183439 19.5917 0.00165614 19.1317C0.459989 8.40333 9.24332 0 20 0C25.8033 0 31.175 2.47333 34.975 6.79C34.9783 6.74667 35 6.71 35 6.66667V0.833333C35 0.373333 35.3733 0 35.8333 0C36.2933 0 36.6667 0.373333 36.6667 0.833333V6.66667C36.6667 7.44333 36.3883 8.14833 35.9433 8.715C35.8883 8.82 35.8167 8.91667 35.7167 8.99333C35.7167 8.99333 35.7133 8.99333 35.7117 8.99667C35.1067 9.61333 34.265 10 33.335 10H27.5017C27.0417 10 26.6683 9.62667 26.6683 9.16667C26.6683 8.70667 27.0417 8.33333 27.5017 8.33333H33.335C33.5683 8.33333 33.79 8.28333 33.9933 8.19667C30.4983 4.05 25.4583 1.66667 20.0017 1.66667C10.14 1.66667 2.08666 9.37 1.66666 19.2017Z" fill="black"/>
</g>
<defs>
<clipPath id="clip0_4120_3006">
<rect width="40" height="40" fill="white"/>
</clipPath>
</defs>
</svg>
