<svg width="16" height="15" viewBox="0 0 16 15" fill="none" xmlns="http://www.w3.org/2000/svg">
<g id="Tick" clip-path="url(#clip0_4274_1254)">
<path id="Vector" d="M1.90393 3.79939C2.0265 3.79923 2.14788 3.82344 2.26108 3.87064C2.37427 3.91784 2.47705 3.98709 2.56346 4.07439L7.33758 8.86939C7.48203 9.01453 7.65352 9.12966 7.84227 9.2082C8.03102 9.28675 8.23332 9.32718 8.43763 9.32718C8.64193 9.32718 8.84424 9.28675 9.03298 9.2082C9.22173 9.12966 9.39323 9.01453 9.53767 8.86939L14.3043 4.08064C14.3904 3.9911 14.4934 3.91968 14.6073 3.87055C14.7211 3.82141 14.8436 3.79555 14.9675 3.79447C15.0914 3.79339 15.2143 3.81711 15.329 3.86425C15.4437 3.91138 15.5479 3.981 15.6356 4.06902C15.7232 4.15705 15.7925 4.26172 15.8394 4.37693C15.8864 4.49215 15.91 4.6156 15.9089 4.74008C15.9078 4.86456 15.8821 4.98758 15.8332 5.10196C15.7842 5.21634 15.7131 5.31978 15.624 5.40627L10.8574 10.195C10.2152 10.8389 9.34494 11.2005 8.43763 11.2005C7.53031 11.2005 6.66007 10.8389 6.0179 10.195L1.24378 5.40002C1.11317 5.2689 1.02422 5.10182 0.988171 4.91991C0.952125 4.73799 0.970608 4.54943 1.04128 4.37807C1.11196 4.20671 1.23164 4.06026 1.3852 3.95725C1.53876 3.85424 1.71928 3.79931 1.90393 3.79939Z" fill="black"/>
</g>
<defs>
<clipPath id="clip0_4274_1254">
<rect width="14.9327" height="15" fill="white" transform="translate(0.964355)"/>
</clipPath>
</defs>
</svg>
