<svg width="70" height="70" viewBox="0 0 70 70" fill="none" xmlns="http://www.w3.org/2000/svg">
<g id="heart-rate 2" clip-path="url(#clip0_4117_1010)">
<path id="Vector" d="M48.2738 61.2499H48.2417C47.0779 61.2383 46.0804 60.4741 45.7625 59.3541L34.9038 12.6495L24.1471 53.5354C23.7854 54.6612 22.855 55.3699 21.7496 55.4137C20.6267 55.4312 19.6554 54.8216 19.2383 53.8008L14.5658 37.8204C13.9708 36.1666 12.3171 34.9999 10.4738 34.9999H1.45833C0.653333 34.9999 0 34.3466 0 33.5416C0 32.7366 0.653333 32.0833 1.45833 32.0833H10.4738C13.545 32.0833 16.3042 34.0287 17.3396 36.9191L21.6329 51.6366L32.4246 10.6312C32.8037 9.45284 33.81 8.71201 34.9738 8.74992C36.1287 8.77034 37.1146 9.53159 37.4325 10.6428L48.2708 57.2629L52.8354 37.5316C53.7017 34.3028 56.5979 32.0803 59.8908 32.0803H68.5417C69.3467 32.0803 70 32.7337 70 33.5387C70 34.3437 69.3467 34.997 68.5417 34.997H59.8908C57.9133 34.997 56.1779 36.3299 55.6675 38.2374L50.7879 59.3104C50.4204 60.512 49.4229 61.2499 48.2738 61.2499Z" fill="black"/>
</g>
<defs>
<clipPath id="clip0_4117_1010">
<rect width="70" height="70" fill="white"/>
</clipPath>
</defs>
</svg>
