<svg width="70" height="70" viewBox="0 0 70 70" fill="none" xmlns="http://www.w3.org/2000/svg">
<g id="land-layer-location 2" clip-path="url(#clip0_4117_1675)">
<path id="Vector" d="M29.8638 43.1142C31.2842 44.5054 33.1538 45.1967 35.0175 45.1967C36.8608 45.1967 38.6983 44.5171 40.0808 43.1637L49.4346 34.8542C53.2904 30.9983 55.4167 25.8708 55.4167 20.4167C55.4167 14.9625 53.2904 9.83792 49.4346 5.97917C45.5817 2.12333 40.4542 0 35 0C29.5458 0 24.4183 2.12333 20.5625 5.97917C12.6029 13.9387 12.6029 26.8917 20.6238 34.9125L29.8638 43.1142ZM22.6246 8.04125C25.9321 4.73667 30.3275 2.91667 35 2.91667C39.6725 2.91667 44.0679 4.73667 47.3725 8.04125C50.68 11.3458 52.5 15.7412 52.5 20.4167C52.5 25.0921 50.68 29.4846 47.4367 32.7308L38.0946 41.0287C36.3913 42.7 33.6146 42.6912 31.8529 40.9792L22.6246 32.7892C15.8025 25.9671 15.8025 14.8633 22.6246 8.04125ZM35 29.1083C39.8067 29.1083 43.7208 25.1971 43.7208 20.3875C43.7208 15.5779 39.8067 11.6667 35 11.6667C30.1933 11.6667 26.2792 15.5779 26.2792 20.3875C26.2792 25.1971 30.1933 29.1083 35 29.1083ZM35 14.5833C38.2025 14.5833 40.8042 17.1879 40.8042 20.3875C40.8042 23.5871 38.1996 26.1917 35 26.1917C31.8004 26.1917 29.1958 23.5871 29.1958 20.3875C29.1958 17.1879 31.8004 14.5833 35 14.5833ZM70 49.63C70 50.1433 69.7317 50.6187 69.2913 50.8812L39.2204 68.9237C37.9196 69.7054 36.4613 70.0962 35 70.0962C33.5387 70.0962 32.0804 69.7025 30.7796 68.9237L0.70875 50.8783C0.268333 50.6158 0 50.1404 0 49.6271C0 49.1137 0.268333 48.6383 0.70875 48.3758L15.2921 39.6258C15.9746 39.2087 16.8787 39.4362 17.2929 40.1275C17.71 40.8158 17.4825 41.7142 16.7913 42.1283L4.29333 49.6271L32.2788 66.4183C33.9588 67.4275 36.0442 67.4275 37.7242 66.4183L65.7096 49.6271L53.1358 42.0817C52.4446 41.6675 52.22 40.7721 52.6342 40.0808C53.0513 39.3896 53.9525 39.165 54.635 39.5792L69.2913 48.3758C69.7317 48.6412 70 49.1137 70 49.6271V49.63Z" fill="black"/>
</g>
<defs>
<clipPath id="clip0_4117_1675">
<rect width="70" height="70" fill="white"/>
</clipPath>
</defs>
</svg>
