<svg width="70" height="70" viewBox="0 0 70 70" fill="none" xmlns="http://www.w3.org/2000/svg">
<g id="assessment 2">
<path id="Vector" d="M32.4176 64.7083C32.4176 65.4213 31.8389 66 31.1258 66H15.6254C9.21591 66 4 60.7842 4 54.375V15.6276C4 9.21833 9.21333 4 15.6254 4H44.0429C50.4524 4 55.6683 9.21317 55.6683 15.6224V23.3724C55.6683 24.0854 55.0922 24.6641 54.3766 24.6641C53.661 24.6641 53.0849 24.0854 53.0849 23.3724V15.6224C53.0849 10.6366 49.0263 6.58075 44.0429 6.58075H15.6254C10.6394 6.58075 6.58341 10.6392 6.58341 15.625V54.3724C6.58341 59.3582 10.642 63.4141 15.6254 63.4141H31.1258C31.8389 63.4141 32.4176 63.9953 32.4176 64.7083ZM65.6248 65.6228C65.3716 65.876 65.0409 66 64.7102 66C64.3796 66 64.0489 65.8734 63.7957 65.6228L54.9527 56.7801C52.0153 59.3014 48.2074 60.8333 44.0403 60.8333C34.7814 60.8333 27.2481 53.3003 27.2481 44.0417C27.2481 34.783 34.7814 27.25 44.0403 27.25C53.2993 27.25 60.8325 34.783 60.8325 44.0417C60.8325 48.206 59.298 52.0138 56.7792 54.9537L65.6222 63.7964C66.1259 64.3002 66.1285 65.1191 65.6248 65.6228ZM58.2517 44.0417C58.2517 36.209 51.8784 29.8333 44.0429 29.8333C36.2074 29.8333 29.8341 36.209 29.8341 44.0417C29.8341 51.8743 36.2074 58.25 44.0429 58.25C51.8784 58.25 58.2517 51.8743 58.2517 44.0417ZM20.7922 16.9167H15.6254C14.9123 16.9167 14.3337 17.4953 14.3337 18.2083C14.3337 18.9213 14.9123 19.5 15.6254 19.5H20.7922C21.5052 19.5 22.0839 18.9213 22.0839 18.2083C22.0839 17.4953 21.5052 16.9167 20.7922 16.9167ZM20.7922 42.75H15.6254C14.9123 42.75 14.3337 43.3287 14.3337 44.0417C14.3337 44.7547 14.9123 45.3333 15.6254 45.3333H20.7922C21.5052 45.3333 22.0839 44.7547 22.0839 44.0417C22.0839 43.3287 21.5052 42.75 20.7922 42.75ZM28.5424 16.9167C27.8294 16.9167 27.2507 17.4953 27.2507 18.2083C27.2507 18.9213 27.8294 19.5 28.5424 19.5H44.0429C44.7559 19.5 45.3346 18.9213 45.3346 18.2083C45.3346 17.4953 44.7559 16.9167 44.0429 16.9167H28.5424ZM20.7922 29.8333H15.6254C14.9123 29.8333 14.3337 30.412 14.3337 31.125C14.3337 31.838 14.9123 32.4167 15.6254 32.4167H20.7922C21.5052 32.4167 22.0839 31.838 22.0839 31.125C22.0839 30.412 21.5052 29.8333 20.7922 29.8333ZM50.8709 40.5051L43.8802 47.2682C43.0096 48.1208 41.5913 48.1311 40.7206 47.2786L37.1995 43.804C36.6931 43.3028 35.8742 43.308 35.373 43.8143C34.8718 44.3232 34.877 45.1422 35.3859 45.6407L38.9097 49.1205C39.8449 50.035 41.072 50.4922 42.2991 50.4922C43.5262 50.4922 44.7559 50.0324 45.686 49.1153L52.6689 42.3625C53.1805 41.8665 53.196 41.0476 52.6999 40.5361C52.2065 40.0246 51.385 40.0142 50.8709 40.5051Z" fill="black"/>
</g>
</svg>
