<svg width="70" height="70" viewBox="0 0 23 24" fill="none" xmlns="http://www.w3.org/2000/svg">
<g id="chart-pie-alt 1" clip-path="url(#clip0_4643_400)">
<path id="Vector" d="M22.9426 7.92417C22.1136 4.27772 19.2223 1.38547 15.5749 0.556508C15.045 0.436716 14.4968 0.560341 14.0722 0.897675C13.6554 1.23022 13.4158 1.72759 13.4158 2.26042V7.68651C13.4158 9.00709 14.4901 10.0823 15.8116 10.0823H21.2377H21.2387C21.7715 10.0823 22.2679 9.84276 22.6005 9.42684C22.9387 9.00326 23.0633 8.45509 22.9426 7.92417ZM21.852 8.82884C21.7025 9.01667 21.4782 9.12401 21.2387 9.12401H15.8116C15.0191 9.12401 14.3741 8.47809 14.3741 7.68651V2.26042C14.3741 2.02084 14.4815 1.79755 14.6702 1.64709C14.8657 1.49184 15.1187 1.4353 15.3631 1.49088C18.6521 2.23934 21.2607 4.84792 22.0082 8.13788C22.0638 8.38322 22.0072 8.63526 21.852 8.8298V8.82884ZM18.7671 12H12.9376C12.145 12 11.5001 11.355 11.5001 10.5625V4.73292C11.5001 3.91259 11.2643 3.29159 10.7995 2.88813C10.1795 2.34955 9.36012 2.39651 9.03716 2.44347C3.59 3.22259 -0.36696 8.17909 0.0278728 13.7269C0.396831 18.9134 4.58666 23.1042 9.77316 23.4722C10.029 23.4904 10.283 23.499 10.536 23.499C15.7685 23.499 20.3139 19.659 21.0566 14.4629C21.1026 14.1399 21.1515 13.3215 20.6119 12.7005C20.2085 12.2357 19.5884 12 18.7671 12ZM20.1069 14.3278C19.3987 19.2795 14.8859 22.8742 9.84121 22.5167C5.20383 22.187 1.313 18.2953 0.982373 13.6579C0.623956 8.60938 4.22058 4.10042 9.17229 3.39222C9.22116 3.38551 9.30933 3.37497 9.41666 3.37497C9.639 3.37497 9.94758 3.41617 10.1718 3.61167C10.4181 3.82538 10.5427 4.20201 10.5427 4.73197V10.5615C10.5427 11.8821 11.618 12.9573 12.9385 12.9573H18.7681C19.299 12.9573 19.6756 13.0819 19.8884 13.3282C20.1768 13.6608 20.1289 14.1773 20.1078 14.3268L20.1069 14.3278Z" fill="black"/>
</g>
<defs>
<clipPath id="clip0_4643_400">
<rect width="23" height="23" fill="white" transform="translate(0 0.5)"/>
</clipPath>
</defs>
</svg>
