<svg width="70" height="70" viewBox="0 0 23 24" fill="none" xmlns="http://www.w3.org/2000/svg">
<path id="Vector" d="M23 3.85417C23 2.00458 21.4954 0.5 19.6458 0.5C17.7962 0.5 16.2917 2.00458 16.2917 3.85417C16.2917 5.54083 17.5432 6.94096 19.1667 7.17383V7.6875C19.1667 9.53708 17.6621 11.0417 15.8125 11.0417H7.1875C5.83433 11.0417 4.62492 11.6684 3.83333 12.6459V7.17383C5.45675 6.94096 6.70833 5.54083 6.70833 3.85417C6.70833 2.00458 5.20375 0.5 3.35417 0.5C1.50458 0.5 0 2.00458 0 3.85417C0 5.54083 1.25158 6.94096 2.875 7.17383V16.8262C1.25158 17.059 0 18.4592 0 20.1458C0 21.9954 1.50458 23.5 3.35417 23.5C5.20375 23.5 6.70833 21.9954 6.70833 20.1458C6.70833 18.4592 5.45675 17.059 3.83333 16.8262V15.3542C3.83333 13.5046 5.33792 12 7.1875 12H15.8125C18.1901 12 20.125 10.0651 20.125 7.6875V7.17383C21.7484 6.94096 23 5.54083 23 3.85417ZM0.958333 3.85417C0.958333 2.53358 2.03358 1.45833 3.35417 1.45833C4.67475 1.45833 5.75 2.53358 5.75 3.85417C5.75 5.17475 4.67475 6.25 3.35417 6.25C2.03358 6.25 0.958333 5.17475 0.958333 3.85417ZM5.75 20.1458C5.75 21.4664 4.67475 22.5417 3.35417 22.5417C2.03358 22.5417 0.958333 21.4664 0.958333 20.1458C0.958333 18.8252 2.03358 17.75 3.35417 17.75C4.67475 17.75 5.75 18.8252 5.75 20.1458ZM19.6458 6.25C18.3252 6.25 17.25 5.17475 17.25 3.85417C17.25 2.53358 18.3252 1.45833 19.6458 1.45833C20.9664 1.45833 22.0417 2.53358 22.0417 3.85417C22.0417 5.17475 20.9664 6.25 19.6458 6.25Z" fill="black"/>
</svg>
